{
    "asset" : {
        "generator" : "Khronos glTF Blender I/O v3.3.27",
        "version" : "2.0"
    },
    "scene" : 0,
    "scenes" : [
        {
            "name" : "Scene",
            "nodes" : [
                0
            ]
        }
    ],
    "nodes" : [
        {
            "mesh" : 0,
            "name" : "Plane.001",
            "rotation" : [
                0.39065665006637573,
                -0.05617798492312431,
                -0.02389433979988098,
                0.9185099005699158
            ],
            "scale" : [
                0.5345672965049744,
                0.5345673561096191,
                0.5345673561096191
            ],
            "translation" : [
                0.06772363930940628,
                -0.08273382484912872,
                0.013866606168448925
            ]
        }
    ],
    "materials" : [
        {
            "doubleSided" : true,
            "name" : "Material.001",
            "pbrMetallicRoughness" : {
                "baseColorFactor" : [
                    0.30600646138191223,
                    0.8000000715255737,
                    0.6252682209014893,
                    1
                ],
                "metallicFactor" : 0,
                "roughnessFactor" : 0.4000000059604645
            }
        }
    ],
    "meshes" : [
        {
            "name" : "Plane.001",
            "primitives" : [
                {
                    "attributes" : {
                        "POSITION" : 0,
                        "NORMAL" : 1,
                        "TEXCOORD_0" : 2
                    },
                    "indices" : 3,
                    "material" : 0
                }
            ]
        }
    ],
    "accessors" : [
        {
            "bufferView" : 0,
            "componentType" : 5126,
            "count" : 1207,
            "max" : [
                1.0129051208496094,
                0.0896511971950531,
                0.41099998354911804
            ],
            "min" : [
                -1.2940729856491089,
                -0.01583830639719963,
                -0.9950636625289917
            ],
            "type" : "VEC3"
        },
        {
            "bufferView" : 1,
            "componentType" : 5126,
            "count" : 1207,
            "type" : "VEC3"
        },
        {
            "bufferView" : 2,
            "componentType" : 5126,
            "count" : 1207,
            "type" : "VEC2"
        },
        {
            "bufferView" : 3,
            "componentType" : 5123,
            "count" : 1680,
            "type" : "SCALAR"
        }
    ],
    "bufferViews" : [
        {
            "buffer" : 0,
            "byteLength" : 14484,
            "byteOffset" : 0,
            "target" : 34962
        },
        {
            "buffer" : 0,
            "byteLength" : 14484,
            "byteOffset" : 14484,
            "target" : 34962
        },
        {
            "buffer" : 0,
            "byteLength" : 9656,
            "byteOffset" : 28968,
            "target" : 34962
        },
        {
            "buffer" : 0,
            "byteLength" : 3360,
            "byteOffset" : 38624,
            "target" : 34963
        }
    ],
    "buffers" : [
        {
            "byteLength" : 41984,
            "uri" : "singapore-map.bin"
        }
    ]
}
