{
    "asset" : {
        "generator" : "Khronos glTF Blender I/O v3.3.27",
        "version" : "2.0"
    },
    "scene" : 0,
    "scenes" : [
        {
            "name" : "Scene",
            "nodes" : [
                0,
                1,
                2,
                3
            ]
        }
    ],
    "nodes" : [
        {
            "mesh" : 0,
            "name" : "West",
            "rotation" : [
                0.5476898550987244,
                -0.004623115062713623,
                0.007062169723212719,
                0.836638867855072
            ],
            "scale" : [
                1.5639451742172241,
                1.5639452934265137,
                1.5639451742172241
            ],
            "translation" : [
                0.08432602137327194,
                -0.6416299343109131,
                0.2228579819202423
            ]
        },
        {
            "mesh" : 1,
            "name" : "North",
            "rotation" : [
                0.5476898550987244,
                -0.004623115062713623,
                0.007062169257551432,
                0.836638867855072
            ],
            "scale" : [
                -1.6831939220428467,
                -1.6831939220428467,
                -1.6831939220428467
            ],
            "translation" : [
                0.32687097787857056,
                -0.4870990216732025,
                0.17627659440040588
            ]
        },
        {
            "mesh" : 2,
            "name" : "Central",
            "rotation" : [
                0.5476897954940796,
                -0.004623115062713623,
                0.007062169723212719,
                0.836638867855072
            ],
            "scale" : [
                1.6246864795684814,
                1.6246864795684814,
                1.6246864795684814
            ],
            "translation" : [
                0.4189939498901367,
                -0.6607872247695923,
                0.2186492383480072
            ]
        },
        {
            "mesh" : 3,
            "name" : "East",
            "rotation" : [
                0.5476898550987244,
                -0.004623115062713623,
                0.007062169723212719,
                0.836638867855072
            ],
            "scale" : [
                1.5939719676971436,
                1.593971848487854,
                1.5939717292785645
            ],
            "translation" : [
                0.5803831219673157,
                -0.7073044180870056,
                0.26724013686180115
            ]
        }
    ],
    "materials" : [
        {
            "doubleSided" : true,
            "name" : "Material.004",
            "pbrMetallicRoughness" : {
                "baseColorFactor" : [
                    0.800000011920929,
                    0.0015215873718261719,
                    0,
                    1
                ],
                "metallicFactor" : 0,
                "roughnessFactor" : 0.5
            }
        },
        {
            "doubleSided" : true,
            "name" : "Material.003",
            "pbrMetallicRoughness" : {
                "baseColorFactor" : [
                    0.800000011920929,
                    0.0015215873718261719,
                    0,
                    1
                ],
                "metallicFactor" : 0,
                "roughnessFactor" : 0.5
            }
        },
        {
            "doubleSided" : true,
            "name" : "Material.002",
            "pbrMetallicRoughness" : {
                "baseColorFactor" : [
                    0.800000011920929,
                    0.0015215873718261719,
                    0,
                    1
                ],
                "metallicFactor" : 0,
                "roughnessFactor" : 0.5
            }
        },
        {
            "doubleSided" : true,
            "name" : "Material.001",
            "pbrMetallicRoughness" : {
                "baseColorFactor" : [
                    0.8000000715255737,
                    0.0015215874882414937,
                    0,
                    1
                ],
                "metallicFactor" : 0,
                "roughnessFactor" : 0.5
            }
        }
    ],
    "meshes" : [
        {
            "name" : "Plane.001",
            "primitives" : [
                {
                    "attributes" : {
                        "POSITION" : 0,
                        "NORMAL" : 1,
                        "TEXCOORD_0" : 2
                    },
                    "indices" : 3,
                    "material" : 0
                }
            ]
        },
        {
            "name" : "Plane.003",
            "primitives" : [
                {
                    "attributes" : {
                        "POSITION" : 4,
                        "NORMAL" : 5,
                        "TEXCOORD_0" : 6
                    },
                    "indices" : 7,
                    "material" : 1
                }
            ]
        },
        {
            "name" : "Plane.005",
            "primitives" : [
                {
                    "attributes" : {
                        "POSITION" : 8,
                        "NORMAL" : 9,
                        "TEXCOORD_0" : 10
                    },
                    "indices" : 11,
                    "material" : 2
                }
            ]
        },
        {
            "name" : "Plane.007",
            "primitives" : [
                {
                    "attributes" : {
                        "POSITION" : 12,
                        "NORMAL" : 13,
                        "TEXCOORD_0" : 14
                    },
                    "indices" : 15,
                    "material" : 3
                }
            ]
        }
    ],
    "accessors" : [
        {
            "bufferView" : 0,
            "componentType" : 5126,
            "count" : 530,
            "max" : [
                -0.315454363822937,
                0.05743611976504326,
                -0.11793601512908936
            ],
            "min" : [
                -0.9797289967536926,
                0,
                -0.8505783081054688
            ],
            "type" : "VEC3"
        },
        {
            "bufferView" : 1,
            "componentType" : 5126,
            "count" : 530,
            "type" : "VEC3"
        },
        {
            "bufferView" : 2,
            "componentType" : 5126,
            "count" : 530,
            "type" : "VEC2"
        },
        {
            "bufferView" : 3,
            "componentType" : 5123,
            "count" : 828,
            "type" : "SCALAR"
        },
        {
            "bufferView" : 4,
            "componentType" : 5126,
            "count" : 227,
            "max" : [
                0.448783278465271,
                0,
                0.8059945702552795
            ],
            "min" : [
                0.03479665517807007,
                -0.05336696282029152,
                0.26067638397216797
            ],
            "type" : "VEC3"
        },
        {
            "bufferView" : 5,
            "componentType" : 5126,
            "count" : 227,
            "type" : "VEC3"
        },
        {
            "bufferView" : 6,
            "componentType" : 5126,
            "count" : 227,
            "type" : "VEC2"
        },
        {
            "bufferView" : 7,
            "componentType" : 5123,
            "count" : 360,
            "type" : "SCALAR"
        },
        {
            "bufferView" : 8,
            "componentType" : 5126,
            "count" : 316,
            "max" : [
                0.17697978019714355,
                0.05528879165649414,
                0.05716514587402344
            ],
            "min" : [
                -0.4905967712402344,
                0,
                -0.5418730974197388
            ],
            "type" : "VEC3"
        },
        {
            "bufferView" : 9,
            "componentType" : 5126,
            "count" : 316,
            "type" : "VEC3"
        },
        {
            "bufferView" : 10,
            "componentType" : 5126,
            "count" : 316,
            "type" : "VEC2"
        },
        {
            "bufferView" : 11,
            "componentType" : 5123,
            "count" : 504,
            "type" : "SCALAR"
        },
        {
            "bufferView" : 12,
            "componentType" : 5126,
            "count" : 374,
            "max" : [
                0.5817012786865234,
                0.05635416507720947,
                -0.1954944133758545
            ],
            "min" : [
                -0.12811243534088135,
                0,
                -0.7681811451911926
            ],
            "type" : "VEC3"
        },
        {
            "bufferView" : 13,
            "componentType" : 5126,
            "count" : 374,
            "type" : "VEC3"
        },
        {
            "bufferView" : 14,
            "componentType" : 5126,
            "count" : 374,
            "type" : "VEC2"
        },
        {
            "bufferView" : 15,
            "componentType" : 5123,
            "count" : 600,
            "type" : "SCALAR"
        }
    ],
    "bufferViews" : [
        {
            "buffer" : 0,
            "byteLength" : 6360,
            "byteOffset" : 0,
            "target" : 34962
        },
        {
            "buffer" : 0,
            "byteLength" : 6360,
            "byteOffset" : 6360,
            "target" : 34962
        },
        {
            "buffer" : 0,
            "byteLength" : 4240,
            "byteOffset" : 12720,
            "target" : 34962
        },
        {
            "buffer" : 0,
            "byteLength" : 1656,
            "byteOffset" : 16960,
            "target" : 34963
        },
        {
            "buffer" : 0,
            "byteLength" : 2724,
            "byteOffset" : 18616,
            "target" : 34962
        },
        {
            "buffer" : 0,
            "byteLength" : 2724,
            "byteOffset" : 21340,
            "target" : 34962
        },
        {
            "buffer" : 0,
            "byteLength" : 1816,
            "byteOffset" : 24064,
            "target" : 34962
        },
        {
            "buffer" : 0,
            "byteLength" : 720,
            "byteOffset" : 25880,
            "target" : 34963
        },
        {
            "buffer" : 0,
            "byteLength" : 3792,
            "byteOffset" : 26600,
            "target" : 34962
        },
        {
            "buffer" : 0,
            "byteLength" : 3792,
            "byteOffset" : 30392,
            "target" : 34962
        },
        {
            "buffer" : 0,
            "byteLength" : 2528,
            "byteOffset" : 34184,
            "target" : 34962
        },
        {
            "buffer" : 0,
            "byteLength" : 1008,
            "byteOffset" : 36712,
            "target" : 34963
        },
        {
            "buffer" : 0,
            "byteLength" : 4488,
            "byteOffset" : 37720,
            "target" : 34962
        },
        {
            "buffer" : 0,
            "byteLength" : 4488,
            "byteOffset" : 42208,
            "target" : 34962
        },
        {
            "buffer" : 0,
            "byteLength" : 2992,
            "byteOffset" : 46696,
            "target" : 34962
        },
        {
            "buffer" : 0,
            "byteLength" : 1200,
            "byteOffset" : 49688,
            "target" : 34963
        }
    ],
    "buffers" : [
        {
            "byteLength" : 50888,
            "uri" : "test3.bin"
        }
    ]
}
